<svg width="1058" height="1060" viewBox="0 0 1058 1060" fill="none" xmlns="http://www.w3.org/2000/svg">
<path d="M2.99998 527C2.99998 485.026 37.0263 451 79 451H979C1020.97 451 1055 485.026 1055 527V534C1055 575.974 1020.97 610 979 610H79C37.0263 610 2.99998 575.974 2.99998 534V527Z" fill="white"/>
<path d="M0.86353 528.204C-0.44007 490.874 28.7653 459.555 66.0955 458.251L944.309 427.583C1004.52 425.481 1055.03 472.586 1057.14 532.796C1058.44 570.126 1029.23 601.445 991.904 602.749L113.691 633.417C53.4806 635.519 2.96611 588.414 0.86353 528.204Z" fill="white"/>
<path d="M436.874 168.34C407.194 138.66 407.194 90.5397 436.874 60.8599L475.081 22.6533C504.76 -7.02653 552.881 -7.02653 582.561 22.6533L753.546 193.639C783.226 223.319 783.226 271.439 753.546 301.119L715.34 339.326C685.66 369.005 637.539 369.005 607.859 339.326L436.874 168.34Z" fill="white"/>
<path d="M24 473.528L474.024 23.5038C503.703 -6.17599 551.824 -6.17597 581.504 23.5039L663 105L159.236 608.764L24 473.528Z" fill="white"/>
<path d="M182 392.511L528.491 176L594.242 281.223L247.751 497.735L182 392.511Z" fill="white"/>
<path d="M622.412 891.424C652.092 921.104 652.092 969.224 622.412 998.904L584.206 1037.11C554.526 1066.79 506.405 1066.79 476.726 1037.11L305.74 866.125C276.06 836.445 276.06 788.325 305.74 758.645L343.947 720.438C373.627 690.758 421.747 690.758 451.427 720.438L622.412 891.424Z" fill="white"/>
<path d="M1035.29 586.236L585.263 1036.26C555.583 1065.94 507.462 1065.94 477.782 1036.26L396.286 954.764L900.05 451L1035.29 586.236Z" fill="white"/>
<path d="M877.286 667.252L530.796 883.764L465.045 778.54L811.535 562.029L877.286 667.252Z" fill="white"/>
</svg>
